<svg width="48" height="48" viewBox="0 0 48 48" fill="none" xmlns="http://www.w3.org/2000/svg">
<path d="M21.0668 21.8834C20.7112 21.5639 20.1779 21.5639 19.8223 21.8834C19.4667 22.2028 19.4668 22.682 19.8223 23.0015L21.1556 24.1995C21.3334 24.3593 21.5111 24.4391 21.7778 24.4391C21.9556 24.4391 22.2223 24.3593 22.4 24.1995C22.7555 23.8801 22.7555 23.4009 22.4 23.0814L21.0668 21.8834Z" fill="#00BF78"/>
<path d="M47.1112 45.6039C44.6224 45.6039 42.6668 43.8469 42.6668 41.6105C42.6668 38.0964 39.4668 35.2212 35.5556 35.2212C34.9511 35.2212 34.3637 35.2902 33.8025 35.4193L25.4223 26.356C25.3804 26.2931 25.3434 26.2281 25.3109 26.1619C26.1585 25.1564 29.1641 21.6958 39.8224 9.42425C41.8669 6.94841 43.289 4.23288 44.1779 1.27784L44.3557 0.718801L43.3779 0.0798356L36.6224 3.59401L22.2555 19.025L7.73345 3.43424L1.51115 0.2396L0.977814 0L0 0.718801L0.177813 1.27784C1.06667 4.23288 2.57782 6.94841 4.53334 9.42425L19.1329 26.2006C19.1011 26.268 19.0619 26.3204 19.0222 26.356L10.642 35.4194C10.0806 35.2903 9.49335 35.2213 8.88887 35.2213C4.97772 35.2213 1.77771 38.0965 1.77771 41.6106C1.77771 45.1248 4.97772 48 8.88887 48C12.8 48 16 45.1248 16 41.6106C16 40.3499 15.5865 39.1726 14.8777 38.1796L22.1867 29.7098L29.5626 38.1854C28.8564 39.1771 28.4444 40.3523 28.4444 41.6105C28.4444 45.1247 31.6444 47.9999 35.5556 47.9999C38.2682 47.9999 40.6376 46.6163 41.8357 44.5963C42.9305 46.1673 44.8719 47.2013 47.1111 47.2013C47.5556 47.2013 48 46.8818 48 46.4026C48 45.9234 47.6446 45.6039 47.1112 45.6039ZM37.7779 4.79201L41.8668 2.71544C41.0668 4.79201 39.9112 6.70881 38.4889 8.46585C38.4001 8.54568 29.6889 18.5291 25.6889 23.2412C25.6888 23.2406 25.6886 23.2399 25.6884 23.2393C25.6788 23.1936 25.6686 23.1479 25.6563 23.1026C25.6457 23.0622 25.6334 23.0226 25.6204 22.9834C25.6139 22.9636 25.6078 22.9438 25.6007 22.924C25.5904 22.8958 25.5791 22.8682 25.5677 22.8405C25.4552 22.5581 25.2895 22.288 25.0666 22.0432L23.4038 20.2581L37.7779 4.79201ZM2.57782 2.71544L6.57783 4.79201L23.6445 23.0016C23.9112 23.401 24.0001 23.8802 23.7334 24.2795C23.1112 25.2379 23.2 26.4359 24.0001 27.3144L32.0889 36.0199C31.9452 36.0974 31.8013 36.1839 31.6576 36.2754C31.3829 36.4383 31.1216 36.618 30.8751 36.8126C30.8353 36.8412 30.7954 36.8698 30.7556 36.8985L5.95564 8.46585C4.53345 6.70881 3.37782 4.79201 2.57782 2.71544ZM8.88898 46.4026C5.95564 46.4026 3.55563 44.2462 3.55563 41.6106C3.55563 38.975 5.95564 36.8186 8.88898 36.8186C9.27158 36.8186 9.64481 36.8562 10.0051 36.9258L10.6667 37.1381C10.9555 37.2088 11.2285 37.3081 11.4863 37.4305C11.888 37.6334 12.2576 37.8817 12.587 38.1675C12.7571 38.3196 12.9171 38.4828 13.0667 38.6555L13.2401 38.8503C13.8574 39.6321 14.2223 40.5847 14.2223 41.6106C14.2223 44.2462 11.8223 46.4026 8.88898 46.4026ZM21.0668 28.4326L13.7241 36.9378C13.321 36.6006 12.8745 36.3054 12.3935 36.0586L20.2537 27.4885L20.8669 28.1931L21.0668 28.4326ZM35.5557 46.4026C32.6224 46.4026 30.2224 44.2462 30.2224 41.6106C30.2224 40.5847 30.5873 39.6321 31.2045 38.8503L31.3779 38.6556C32.0001 37.9368 32.8001 37.4576 33.7779 37.1381L34.4394 36.9259C34.7998 36.8562 35.173 36.8187 35.5556 36.8187C38.4889 36.8187 40.8889 38.9751 40.8889 41.6107C40.889 44.2462 38.489 46.4026 35.5557 46.4026Z" fill="#00BF78"/>
</svg>
