<svg width="79" height="73" viewBox="0 0 79 73" fill="none" xmlns="http://www.w3.org/2000/svg">
<path d="M62.8563 46.4657L49.3905 32.4616C52.8251 29.017 54.953 24.2682 54.953 19.0311C54.953 8.5368 46.4162 0 35.9219 0C25.4276 0 16.8908 8.5368 16.8908 19.0311C16.8908 29.5254 25.4276 38.0622 35.9219 38.0622C40.5283 38.0622 44.756 36.4155 48.0511 33.6832L61.5495 47.7218C61.7271 47.9076 61.9646 48 62.2029 48C62.4295 48 62.6551 47.9157 62.831 47.7472C63.1916 47.4001 63.2025 46.8264 62.8563 46.4657ZM35.9219 36.2497C26.4272 36.2497 18.7033 28.5258 18.7033 19.0311C18.7033 9.53638 26.4272 1.81248 35.9219 1.81248C45.4166 1.81248 53.1405 9.53638 53.1405 19.0311C53.1405 28.5258 45.4157 36.2497 35.9219 36.2497Z" fill="white"/>
<path d="M9.87124 60.2L5.51724 68.278C5.17191 68.922 4.76591 69.4027 4.29924 69.72C3.83258 70.0373 3.32391 70.196 2.77324 70.196C2.34391 70.196 1.90524 70.098 1.45724 69.902L1.82124 68.782C2.16658 68.9033 2.47458 68.964 2.74524 68.964C3.36124 68.964 3.86991 68.6373 4.27124 67.984L4.49524 67.634L0.547242 60.2H2.04524L5.22324 66.416L8.48524 60.2H9.87124ZM15.8667 66.15C16.8281 66.3927 17.3087 66.9947 17.3087 67.956C17.3087 68.6093 17.0614 69.1133 16.5667 69.468C16.0814 69.8227 15.3534 70 14.3827 70H10.8127V62.58H14.2567C15.1341 62.58 15.8201 62.748 16.3147 63.084C16.8094 63.4107 17.0567 63.8773 17.0567 64.484C17.0567 64.876 16.9494 65.2167 16.7347 65.506C16.5294 65.786 16.2401 66.0007 15.8667 66.15ZM12.1287 65.772H14.1447C14.6581 65.772 15.0454 65.6787 15.3067 65.492C15.5774 65.3053 15.7127 65.0347 15.7127 64.68C15.7127 63.9707 15.1901 63.616 14.1447 63.616H12.1287V65.772ZM14.2847 68.964C14.8447 68.964 15.2647 68.8753 15.5447 68.698C15.8247 68.5207 15.9647 68.2453 15.9647 67.872C15.9647 67.4893 15.8341 67.2047 15.5727 67.018C15.3207 66.8313 14.9194 66.738 14.3687 66.738H12.1287V68.964H14.2847ZM26.1184 66.332C26.1184 66.4347 26.109 66.57 26.0904 66.738H20.0704C20.1544 67.3913 20.439 67.9187 20.9244 68.32C21.419 68.712 22.0304 68.908 22.7584 68.908C23.645 68.908 24.359 68.6093 24.9004 68.012L25.6424 68.88C25.3064 69.272 24.8864 69.5707 24.3824 69.776C23.8877 69.9813 23.3324 70.084 22.7164 70.084C21.9324 70.084 21.237 69.9253 20.6304 69.608C20.0237 69.2813 19.5524 68.8287 19.2164 68.25C18.8897 67.6713 18.7264 67.018 18.7264 66.29C18.7264 65.5713 18.885 64.9227 19.2024 64.344C19.529 63.7653 19.9724 63.3173 20.5324 63C21.1017 62.6733 21.741 62.51 22.4504 62.51C23.1597 62.51 23.7897 62.6733 24.3404 63C24.9004 63.3173 25.3344 63.7653 25.6424 64.344C25.9597 64.9227 26.1184 65.5853 26.1184 66.332ZM22.4504 63.644C21.8064 63.644 21.265 63.84 20.8264 64.232C20.397 64.624 20.145 65.1373 20.0704 65.772H24.8304C24.7557 65.1467 24.499 64.638 24.0604 64.246C23.631 63.8447 23.0944 63.644 22.4504 63.644ZM34.4503 62.58V70H33.1063V63.756H29.9143L29.8303 65.408C29.7837 66.4067 29.695 67.242 29.5643 67.914C29.4337 68.5767 29.219 69.1087 28.9203 69.51C28.6217 69.9113 28.2063 70.112 27.6743 70.112C27.4317 70.112 27.1563 70.07 26.8483 69.986L26.9323 68.852C27.0537 68.88 27.1657 68.894 27.2683 68.894C27.6417 68.894 27.9217 68.7307 28.1083 68.404C28.295 68.0773 28.4163 67.69 28.4723 67.242C28.5283 66.794 28.5797 66.1547 28.6263 65.324L28.7523 62.58H34.4503ZM37.0491 62.58H38.3931V67.984L42.9431 62.58H44.1611V70H42.8171V64.596L38.2811 70H37.0491V62.58ZM52.6918 62.58V70H51.3478V67.004C50.5451 67.3773 49.7471 67.564 48.9538 67.564C48.0298 67.564 47.3158 67.3493 46.8118 66.92C46.3078 66.4907 46.0558 65.8467 46.0558 64.988V62.58H47.3998V64.904C47.3998 65.4173 47.5584 65.8047 47.8758 66.066C48.2024 66.3273 48.6551 66.458 49.2338 66.458C49.8871 66.458 50.5918 66.2947 51.3478 65.968V62.58H52.6918ZM55.301 62.58H56.645V67.984L61.195 62.58H62.413V70H61.069V64.596L56.533 70H55.301V62.58ZM70.5517 63.756H67.8357V70H66.4917V63.756H63.7757V62.58H70.5517V63.756ZM75.356 65.1C76.2987 65.1093 77.0174 65.324 77.512 65.744C78.0067 66.164 78.254 66.7567 78.254 67.522C78.254 68.3247 77.9834 68.9453 77.442 69.384C76.91 69.8133 76.1447 70.0233 75.146 70.014L71.926 70V62.58H73.27V65.086L75.356 65.1ZM75.034 68.992C75.6407 69.0013 76.098 68.88 76.406 68.628C76.7234 68.376 76.882 68.0027 76.882 67.508C76.882 67.0227 76.728 66.668 76.42 66.444C76.1214 66.22 75.6594 66.1033 75.034 66.094L73.27 66.066V68.978L75.034 68.992Z" fill="white"/>
</svg>
